<?xml version="1.0" encoding="utf-8"?>
<!-- Generated by IcoMoon.io -->
<svg version="1.1" xmlns="http://www.w3.org/2000/svg" xmlns:xlink="http://www.w3.org/1999/xlink" width="410" height="32" viewBox="0 0 410 32">
<svg id="icon-facebook" width="32" height="32" viewBox="0 0 32 32" x="0" y="0">
<path fill="#90a4ae" d="M17.5 11h2.5v-3h-2.5c-1.93 0-3.5 1.57-3.5 3.5v1.5h-2v3h2v8h3v-8h2.5l0.5-3h-3v-1.5c0-0.271 0.229-0.5 0.5-0.5z"></path>
</svg>
<svg id="icon-twitter" width="32" height="32" viewBox="0 0 32 32" x="42" y="0">
<path fill="#90a4ae" d="M24.123 11.469c-0.596 0.267-1.241 0.444-1.913 0.524 0.689-0.412 1.215-1.066 1.466-1.844-0.644 0.381-1.358 0.66-2.116 0.809-0.609-0.647-1.476-1.050-2.434-1.050-1.84 0-3.332 1.491-3.332 3.332 0 0.26 0.029 0.514 0.086 0.758-2.77-0.14-5.226-1.466-6.87-3.484-0.286 0.492-0.451 1.066-0.451 1.675 0 1.155 0.587 2.177 1.482 2.773-0.546-0.016-1.060-0.168-1.51-0.416 0 0.013 0 0.029 0 0.041 0 1.615 1.149 2.964 2.675 3.268-0.279 0.076-0.574 0.117-0.879 0.117-0.216 0-0.422-0.022-0.628-0.060 0.425 1.323 1.656 2.288 3.113 2.316-1.142 0.895-2.577 1.428-4.141 1.428-0.27 0-0.533-0.016-0.796-0.048 1.479 0.949 3.23 1.498 5.112 1.498 6.13 0 9.484-5.080 9.484-9.484 0-0.146-0.003-0.289-0.009-0.431 0.651-0.466 1.215-1.053 1.663-1.723z"></path>
</svg>
<svg id="icon-dribbble" width="32" height="32" viewBox="0 0 32 32" x="84" y="0">
<path fill="#90a4ae" d="M16 24c-4.412 0-8-3.587-8-8s3.588-8 8-8c4.413 0 8 3.588 8 8s-3.587 8-8 8v0zM22.747 17.094c-0.234-0.075-2.116-0.634-4.256-0.291 0.894 2.456 1.256 4.456 1.328 4.872 1.531-1.038 2.625-2.678 2.928-4.581v0zM18.669 22.3c-0.103-0.6-0.497-2.688-1.456-5.181-0.016 0.006-0.031 0.009-0.044 0.016-3.856 1.344-5.241 4.016-5.363 4.266 1.159 0.903 2.616 1.444 4.194 1.444 0.947 0 1.85-0.194 2.669-0.544v0zM10.922 20.578c0.156-0.266 2.031-3.369 5.553-4.509 0.087-0.028 0.178-0.056 0.269-0.081-0.172-0.387-0.359-0.778-0.553-1.159-3.409 1.022-6.722 0.978-7.022 0.975-0.003 0.069-0.003 0.137-0.003 0.209 0 1.753 0.666 3.356 1.756 4.566v0zM9.313 14.609c0.306 0.003 3.122 0.016 6.319-0.831-1.131-2.012-2.353-3.706-2.534-3.953-1.912 0.903-3.344 2.666-3.784 4.784v0zM14.4 9.366c0.188 0.253 1.431 1.944 2.55 4 2.431-0.909 3.459-2.294 3.581-2.469-1.206-1.072-2.794-1.722-4.531-1.722-0.55 0.003-1.088 0.069-1.6 0.191v0zM21.291 11.691c-0.144 0.194-1.291 1.662-3.816 2.694 0.159 0.325 0.313 0.656 0.453 0.991 0.050 0.119 0.1 0.234 0.147 0.353 2.275-0.284 4.534 0.172 4.759 0.219-0.016-1.613-0.594-3.094-1.544-4.256v0z"></path>
</svg>
<svg id="icon-behance" width="32" height="32" viewBox="0 0 32 32" x="126" y="0">
<path fill="#90a4ae" d="M12.498 11.003c0.492 0 0.935 0.042 1.339 0.13 0.404 0.085 0.746 0.228 1.036 0.423 0.287 0.195 0.508 0.456 0.671 0.782 0.156 0.322 0.235 0.726 0.235 1.205 0 0.518-0.117 0.948-0.352 1.293-0.238 0.345-0.583 0.625-1.046 0.847 0.632 0.182 1.098 0.502 1.41 0.954 0.313 0.456 0.463 1.003 0.463 1.648 0 0.521-0.101 0.967-0.3 1.345-0.202 0.381-0.476 0.691-0.811 0.928-0.339 0.241-0.73 0.417-1.166 0.531-0.433 0.114-0.88 0.173-1.342 0.173h-4.974v-10.261h4.837zM12.205 15.147c0.401 0 0.733-0.094 0.994-0.287 0.261-0.189 0.384-0.502 0.384-0.932 0-0.238-0.042-0.437-0.127-0.59-0.088-0.153-0.202-0.274-0.349-0.358-0.143-0.088-0.306-0.147-0.498-0.179-0.186-0.036-0.381-0.052-0.58-0.052h-2.111v2.398h2.287zM12.329 19.515c0.221 0 0.433-0.020 0.632-0.065 0.202-0.046 0.381-0.114 0.531-0.218 0.15-0.101 0.277-0.235 0.368-0.41 0.091-0.173 0.134-0.394 0.134-0.664 0-0.528-0.15-0.906-0.446-1.134-0.296-0.225-0.691-0.335-1.179-0.335h-2.45v2.824h2.411z"></path>
<path fill="#90a4ae" d="M19.472 19.479c0.306 0.3 0.746 0.45 1.319 0.45 0.41 0 0.769-0.104 1.065-0.313s0.476-0.43 0.544-0.658h1.798c-0.29 0.896-0.726 1.531-1.326 1.915-0.59 0.384-1.313 0.58-2.15 0.58-0.586 0-1.111-0.094-1.583-0.28-0.472-0.189-0.866-0.453-1.199-0.798-0.323-0.345-0.577-0.756-0.756-1.238-0.176-0.479-0.267-1.010-0.267-1.583 0-0.557 0.091-1.075 0.274-1.554 0.186-0.482 0.44-0.896 0.779-1.244s0.736-0.625 1.205-0.827c0.466-0.202 0.98-0.303 1.551-0.303 0.629 0 1.179 0.121 1.651 0.368 0.469 0.244 0.857 0.573 1.16 0.984s0.518 0.883 0.651 1.41c0.134 0.528 0.179 1.078 0.143 1.655h-5.365c0 0.583 0.195 1.14 0.505 1.436zM21.815 15.577c-0.241-0.267-0.655-0.414-1.153-0.414-0.326 0-0.596 0.055-0.811 0.166-0.212 0.111-0.384 0.248-0.518 0.41-0.13 0.163-0.221 0.339-0.274 0.524-0.052 0.179-0.085 0.345-0.094 0.489h3.323c-0.049-0.521-0.228-0.906-0.472-1.176z"></path>
<path fill="#90a4ae" d="M18.547 11.83h4.16v1.013h-4.16v-1.013z"></path>
</svg>
<svg id="icon-linkedin2" width="32" height="32" viewBox="0 0 32 32" x="168" y="0">
<path fill="#90a4ae" d="M13.969 13.969h2.81v1.44h0.040c0.391-0.701 1.348-1.44 2.774-1.44 2.966 0 3.514 1.846 3.514 4.248v4.891h-2.929v-4.336c0-1.034-0.021-2.364-1.523-2.364-1.525 0-1.758 1.126-1.758 2.289v4.411h-2.928v-9.139z"></path>
<path fill="#90a4ae" d="M8.892 13.969h3.046v9.139h-3.046v-9.139z"></path>
<path fill="#90a4ae" d="M11.938 11.431c0 0.841-0.682 1.523-1.523 1.523s-1.523-0.682-1.523-1.523c0-0.841 0.682-1.523 1.523-1.523s1.523 0.682 1.523 1.523z"></path>
</svg>
</svg>
